<svg version="1.1" id="Layer_1" xmlns="http://www.w3.org/2000/svg" xmlns:xlink="http://www.w3.org/1999/xlink" x="0px" y="0px"
	 width="100%" viewBox="0 0 187 160" enable-background="new 0 0 187 160" xml:space="preserve">
<path fill="#000000" opacity="1.000000" stroke="none" 
	d="
M109.000000,161.000000 
	C72.666672,161.000000 36.833336,161.000000 1.000005,161.000000 
	C1.000003,107.666672 1.000003,54.333344 1.000002,1.000012 
	C63.333324,1.000008 125.666649,1.000008 187.999969,1.000004 
	C187.999985,54.333324 187.999985,107.666649 188.000000,160.999985 
	C161.833328,161.000000 135.666672,161.000000 109.000000,161.000000 
M159.496429,146.000000 
	C164.590958,146.000000 169.685501,146.000000 174.687500,146.000000 
	C174.687500,109.995811 174.687500,74.608444 174.687500,39.308189 
	C121.993118,39.308189 69.611786,39.308189 17.312702,39.308189 
	C17.312702,75.004601 17.312702,110.391968 17.312702,146.000000 
	C64.582710,146.000000 111.540359,146.000000 159.496429,146.000000 
M38.660248,23.945150 
	C42.061768,26.090887 44.830082,24.410925 46.515686,21.782236 
	C48.293011,19.010504 46.777180,16.025127 44.061348,14.842750 
	C42.437443,14.135758 39.653625,14.622972 38.053761,15.628060 
	C34.401318,17.922651 36.074398,20.841885 38.660248,23.945150 
M21.791933,14.048864 
	C18.988295,15.521471 15.741631,17.217253 17.673075,20.911816 
	C18.651083,22.782604 21.567268,24.712164 23.541246,24.646070 
	C25.079544,24.594563 27.407904,21.679996 27.801634,19.719723 
	C28.500986,16.237841 25.898680,14.495472 21.791933,14.048864 
M61.912651,14.406132 
	C58.140312,12.973050 55.751102,15.405500 55.305164,18.227886 
	C54.994831,20.191986 56.803436,23.641310 58.560371,24.427685 
	C60.039688,25.089800 63.458328,23.430086 64.865456,21.801769 
	C67.386078,18.884924 65.616051,16.445492 61.912651,14.406132 
z"/>
<path fill="#99D9EA" opacity="1.000000" stroke="none" 
	d="
M158.997223,146.000000 
	C111.540359,146.000000 64.582710,146.000000 17.312702,146.000000 
	C17.312702,110.391968 17.312702,75.004601 17.312702,39.308189 
	C69.611786,39.308189 121.993118,39.308189 174.687500,39.308189 
	C174.687500,74.608444 174.687500,109.995811 174.687500,146.000000 
	C169.685501,146.000000 164.590958,146.000000 158.997223,146.000000 
M151.499588,94.999451 
	C153.872162,90.928703 156.244736,86.857964 159.076126,81.999992 
	C151.166260,81.999992 144.680008,81.817261 138.210892,82.071007 
	C134.543106,82.214867 132.470642,80.733574 130.884262,77.591721 
	C127.923508,71.727859 124.697815,65.997772 121.580986,60.209446 
	C110.852898,66.245071 108.137047,84.168167 117.744904,94.335838 
	C125.067383,102.084969 139.403824,105.659332 151.499588,94.999451 
M71.325439,91.956528 
	C76.024620,85.769470 80.723801,79.582413 85.588600,73.177292 
	C86.071587,73.635986 86.540985,74.446648 87.184433,74.623268 
	C88.988770,75.118553 91.117958,76.016678 92.619743,75.444809 
	C93.550224,75.090485 93.738853,72.369316 93.964592,70.671242 
	C94.416908,67.268623 94.737930,63.844131 94.982330,60.419331 
	C95.338943,55.422329 93.616768,53.826355 88.879097,55.097973 
	C84.845688,56.180565 80.832993,57.474861 76.996437,59.110207 
	C74.330833,60.246437 72.392044,62.229080 75.565643,65.066757 
	C76.434921,65.844025 77.384674,66.531288 78.614342,67.512741 
	C75.005005,72.621788 71.679176,77.329521 68.069679,82.438797 
	C65.079216,80.196625 62.242760,78.071800 59.408337,75.944267 
	C56.124020,73.479042 52.886227,72.709366 50.016582,76.483192 
	C44.902889,83.208115 39.757702,89.913574 34.836956,96.778610 
	C32.746571,99.694946 34.570011,103.233315 38.075741,102.813835 
	C40.152504,102.565338 42.477501,100.872910 43.878586,99.163849 
	C47.884739,94.277077 51.475792,89.050011 55.358398,83.782715 
	C58.221199,85.955048 60.639896,88.203339 63.437454,89.778908 
	C65.568756,90.979256 68.180794,91.325989 71.325439,91.956528 
M124.559807,113.000000 
	C124.393394,113.000000 124.226929,113.003006 124.060585,112.999573 
	C109.080185,112.690361 112.349136,114.395630 111.942108,125.148911 
	C111.804062,128.795914 112.911995,130.141113 116.714951,130.075058 
	C128.526810,129.869904 140.345749,129.901917 152.159256,130.052307 
	C156.388641,130.106125 158.358627,128.519989 158.018723,124.224686 
	C157.900940,122.736267 158.003113,121.230698 157.999451,119.732971 
	C157.985397,113.992165 157.018646,113.029716 151.005188,113.007835 
	C142.518158,112.976959 134.030945,113.000008 124.559807,113.000000 
M96.000000,95.672272 
	C95.989044,89.001221 95.989044,89.001183 89.126976,89.000023 
	C87.963127,88.999825 86.781151,89.132515 85.638657,88.976334 
	C81.403534,88.397331 79.698296,89.846092 79.899536,94.420311 
	C80.257263,102.551537 79.901688,110.711258 80.022415,118.856422 
	C80.216812,131.972794 77.730270,129.655319 91.378227,130.068848 
	C95.296410,130.187546 96.133430,128.592224 96.063782,125.063484 
	C95.876808,115.590103 95.999992,106.110603 96.000000,95.672272 
M60.797421,129.999527 
	C63.621723,129.999451 66.512733,130.358109 69.242645,129.850464 
	C70.642799,129.590103 72.787407,127.821693 72.831779,126.667046 
	C73.144096,118.538414 73.103416,110.389137 72.872787,102.255043 
	C72.841400,101.147774 71.233841,99.298721 70.172363,99.155609 
	C67.072388,98.737633 63.804462,98.611481 60.755909,99.185867 
	C59.324310,99.455612 57.227535,101.553429 57.172699,102.894005 
	C56.840252,111.020882 56.919403,119.170738 57.137794,127.305496 
	C57.162506,128.225937 58.917027,129.099945 60.797421,129.999527 
M139.983444,75.999847 
	C145.912735,75.999847 151.842010,75.999847 157.830917,75.999847 
	C155.893936,63.370449 148.327301,57.818768 141.304962,56.382660 
	C136.759827,55.453156 131.451935,54.645397 126.956993,57.405231 
	C129.435806,62.118511 131.414978,66.379372 133.868301,70.347054 
	C135.193100,72.489609 137.328461,74.130966 139.983444,75.999847 
M43.403404,130.000000 
	C49.996857,129.987549 49.996964,129.987549 49.999912,123.571770 
	C50.000519,122.244049 50.023453,120.915840 49.996338,119.588676 
	C49.745720,107.321495 52.217133,109.207001 39.100288,108.983704 
	C35.603554,108.924179 33.900005,110.415871 33.980858,113.993713 
	C34.067074,117.808960 34.175568,121.638153 33.948292,125.441772 
	C33.742119,128.892166 34.958466,130.431046 38.489231,130.024216 
	C39.799549,129.873260 41.141861,129.999954 43.403404,130.000000 
z"/>
<path fill="#FFC90E" opacity="1.000000" stroke="none" 
	d="
M38.338425,23.720280 
	C36.074398,20.841885 34.401318,17.922651 38.053761,15.628060 
	C39.653625,14.622972 42.437443,14.135758 44.061348,14.842750 
	C46.777180,16.025127 48.293011,19.010504 46.515686,21.782236 
	C44.830082,24.410925 42.061768,26.090887 38.338425,23.720280 
z"/>
<path fill="#FFC90E" opacity="1.000000" stroke="none" 
	d="
M22.183784,14.027733 
	C25.898680,14.495472 28.500986,16.237841 27.801634,19.719723 
	C27.407904,21.679996 25.079544,24.594563 23.541246,24.646070 
	C21.567268,24.712164 18.651083,22.782604 17.673075,20.911816 
	C15.741631,17.217253 18.988295,15.521471 22.183784,14.027733 
z"/>
<path fill="#FFC90E" opacity="1.000000" stroke="none" 
	d="
M62.207336,14.668302 
	C65.616051,16.445492 67.386078,18.884924 64.865456,21.801769 
	C63.458328,23.430086 60.039688,25.089800 58.560371,24.427685 
	C56.803436,23.641310 54.994831,20.191986 55.305164,18.227886 
	C55.751102,15.405500 58.140312,12.973050 62.207336,14.668302 
z"/>
<path fill="#000000" opacity="1.000000" stroke="none" 
	d="
M151.239655,95.264954 
	C139.403824,105.659332 125.067383,102.084969 117.744904,94.335838 
	C108.137047,84.168167 110.852898,66.245071 121.580986,60.209446 
	C124.697815,65.997772 127.923508,71.727859 130.884262,77.591721 
	C132.470642,80.733574 134.543106,82.214867 138.210892,82.071007 
	C144.680008,81.817261 151.166260,81.999992 159.076126,81.999992 
	C156.244736,86.857964 153.872162,90.928703 151.239655,95.264954 
z"/>
<path fill="#000000" opacity="1.000000" stroke="none" 
	d="
M70.952202,92.004501 
	C68.180794,91.325989 65.568756,90.979256 63.437454,89.778908 
	C60.639896,88.203339 58.221199,85.955048 55.358398,83.782715 
	C51.475792,89.050011 47.884739,94.277077 43.878586,99.163849 
	C42.477501,100.872910 40.152504,102.565338 38.075741,102.813835 
	C34.570011,103.233315 32.746571,99.694946 34.836956,96.778610 
	C39.757702,89.913574 44.902889,83.208115 50.016582,76.483192 
	C52.886227,72.709366 56.124020,73.479042 59.408337,75.944267 
	C62.242760,78.071800 65.079216,80.196625 68.069679,82.438797 
	C71.679176,77.329521 75.005005,72.621788 78.614342,67.512741 
	C77.384674,66.531288 76.434921,65.844025 75.565643,65.066757 
	C72.392044,62.229080 74.330833,60.246437 76.996437,59.110207 
	C80.832993,57.474861 84.845688,56.180565 88.879097,55.097973 
	C93.616768,53.826355 95.338943,55.422329 94.982330,60.419331 
	C94.737930,63.844131 94.416908,67.268623 93.964592,70.671242 
	C93.738853,72.369316 93.550224,75.090485 92.619743,75.444809 
	C91.117958,76.016678 88.988770,75.118553 87.184433,74.623268 
	C86.540985,74.446648 86.071587,73.635986 85.588600,73.177292 
	C80.723801,79.582413 76.024620,85.769470 70.952202,92.004501 
z"/>
<path fill="#000000" opacity="1.000000" stroke="none" 
	d="
M125.051804,113.000000 
	C134.030945,113.000008 142.518158,112.976959 151.005188,113.007835 
	C157.018646,113.029716 157.985397,113.992165 157.999451,119.732971 
	C158.003113,121.230698 157.900940,122.736267 158.018723,124.224686 
	C158.358627,128.519989 156.388641,130.106125 152.159256,130.052307 
	C140.345749,129.901917 128.526810,129.869904 116.714951,130.075058 
	C112.911995,130.141113 111.804062,128.795914 111.942108,125.148911 
	C112.349136,114.395630 109.080185,112.690361 124.060585,112.999573 
	C124.226929,113.003006 124.393394,113.000000 125.051804,113.000000 
z"/>
<path fill="#000000" opacity="1.000000" stroke="none" 
	d="
M96.000000,96.152901 
	C95.999992,106.110603 95.876808,115.590103 96.063782,125.063484 
	C96.133430,128.592224 95.296410,130.187546 91.378227,130.068848 
	C77.730270,129.655319 80.216812,131.972794 80.022415,118.856422 
	C79.901688,110.711258 80.257263,102.551537 79.899536,94.420311 
	C79.698296,89.846092 81.403534,88.397331 85.638657,88.976334 
	C86.781151,89.132515 87.963127,88.999825 89.126976,89.000023 
	C95.989044,89.001183 95.989044,89.001221 96.000000,96.152901 
z"/>
<path fill="#000000" opacity="1.000000" stroke="none" 
	d="
M60.333420,129.997498 
	C58.917027,129.099945 57.162506,128.225937 57.137794,127.305496 
	C56.919403,119.170738 56.840252,111.020882 57.172699,102.894005 
	C57.227535,101.553429 59.324310,99.455612 60.755909,99.185867 
	C63.804462,98.611481 67.072388,98.737633 70.172363,99.155609 
	C71.233841,99.298721 72.841400,101.147774 72.872787,102.255043 
	C73.103416,110.389137 73.144096,118.538414 72.831779,126.667046 
	C72.787407,127.821693 70.642799,129.590103 69.242645,129.850464 
	C66.512733,130.358109 63.621723,129.999451 60.333420,129.997498 
z"/>
<path fill="#000000" opacity="1.000000" stroke="none" 
	d="
M139.540802,75.999146 
	C137.328461,74.130966 135.193100,72.489609 133.868301,70.347054 
	C131.414978,66.379372 129.435806,62.118511 126.956993,57.405231 
	C131.451935,54.645397 136.759827,55.453156 141.304962,56.382660 
	C148.327301,57.818768 155.893936,63.370449 157.830917,75.999847 
	C151.842010,75.999847 145.912735,75.999847 139.540802,75.999146 
z"/>
<path fill="#000000" opacity="1.000000" stroke="none" 
	d="
M42.936493,130.000000 
	C41.141861,129.999954 39.799549,129.873260 38.489231,130.024216 
	C34.958466,130.431046 33.742119,128.892166 33.948292,125.441772 
	C34.175568,121.638153 34.067074,117.808960 33.980858,113.993713 
	C33.900005,110.415871 35.603554,108.924179 39.100288,108.983704 
	C52.217133,109.207001 49.745720,107.321495 49.996338,119.588676 
	C50.023453,120.915840 50.000519,122.244049 49.999912,123.571770 
	C49.996964,129.987549 49.996857,129.987549 42.936493,130.000000 
z"/>
</svg>